<svg width="24" height="15" viewBox="0 0 24 15" fill="none" xmlns="http://www.w3.org/2000/svg">
<path d="M14.4342 7.54199C14.4342 8.93485 14.1429 10.177 13.5603 11.2686C12.9777 12.3534 12.1473 13.2005 11.0692 13.8098C9.99107 14.4259 8.75558 14.734 7.36272 14.734C6.36496 14.734 5.41071 14.5398 4.5 14.1514C3.58929 13.763 2.8058 13.2407 2.14955 12.5844C1.4933 11.9282 0.970982 11.1447 0.582589 10.234C0.194196 9.32324 0 8.369 0 7.37123C0 6.37346 0.194196 5.41922 0.582589 4.50851C0.970982 3.59779 1.4933 2.81431 2.14955 2.15806C2.8058 1.50181 3.58929 0.979491 4.5 0.591099C5.41071 0.202706 6.36496 0.00850928 7.36272 0.00850928C9.2779 0.00850928 10.9219 0.651366 12.2946 1.93708L10.2958 3.85561C9.51228 3.09891 8.5346 2.72056 7.36272 2.72056C6.53906 2.72056 5.77567 2.92815 5.07254 3.34333C4.37612 3.75851 3.82366 4.32436 3.41518 5.04088C3.0067 5.7507 2.80246 6.52748 2.80246 7.37123C2.80246 8.21498 3.0067 8.99512 3.41518 9.71163C3.82366 10.4215 4.37612 10.984 5.07254 11.3991C5.77567 11.8143 6.53906 12.0219 7.36272 12.0219C7.91853 12.0219 8.42746 11.9449 8.88951 11.7909C9.35826 11.6369 9.7433 11.446 10.0446 11.2183C10.346 10.984 10.6071 10.7194 10.8281 10.4248C11.0558 10.1302 11.2199 9.85226 11.3203 9.5911C11.4275 9.32994 11.5011 9.08217 11.5413 8.8478H7.36272V6.31655H14.3136C14.394 6.73842 14.4342 7.1469 14.4342 7.54199ZM23.1429 6.31655V8.42592H21.0435V10.5253H18.9342V8.42592H16.8348V6.31655H18.9342V4.21721H21.0435V6.31655H23.1429Z" fill="white"/>
</svg>
