<svg width="11" height="18" viewBox="0 0 11 18" fill="none" xmlns="http://www.w3.org/2000/svg">
<path d="M0.60581 9.50326C0.494195 9.39166 0.438383 9.26332 0.438372 9.11823C0.438361 8.97314 0.494156 8.84479 0.605754 8.73317L8.40653 0.931268C8.51813 0.819652 8.64647 0.763839 8.79156 0.763829C8.93665 0.763818 9.065 0.819613 9.17662 0.931212L10.0137 1.7682C10.1253 1.8798 10.1812 2.00815 10.1812 2.15324C10.1812 2.29833 10.1254 2.42668 10.0138 2.53829L3.43502 9.11801L10.0147 15.6968C10.1264 15.8084 10.1822 15.9367 10.1822 16.0818C10.1822 16.2269 10.1264 16.3553 10.0148 16.4669L9.17781 17.304C9.06621 17.4156 8.93786 17.4714 8.79277 17.4714C8.64768 17.4714 8.51933 17.4156 8.40772 17.304L0.60581 9.50326Z" fill="#4B2615"/>
</svg>
