<svg width="17" height="14" viewBox="0 0 17 14" fill="none" xmlns="http://www.w3.org/2000/svg">
<path d="M16.2723 2.46945C15.8237 3.1257 15.2813 3.68485 14.6451 4.1469C14.6518 4.24065 14.6551 4.38128 14.6551 4.56878C14.6551 5.43931 14.5279 6.30985 14.2734 7.18038C14.019 8.04422 13.6306 8.87458 13.1083 9.67146C12.5926 10.4683 11.9766 11.1748 11.26 11.7909C10.5435 12.4003 9.67969 12.8891 8.66853 13.2574C7.65737 13.619 6.57589 13.7998 5.42411 13.7998C3.60938 13.7998 1.94866 13.3143 0.441964 12.3433C0.676339 12.3701 0.9375 12.3835 1.22545 12.3835C2.73214 12.3835 4.07478 11.9215 5.25335 10.9973C4.55022 10.984 3.92076 10.7697 3.36496 10.3545C2.80915 9.93262 2.42746 9.3969 2.21987 8.74735C2.44085 8.78083 2.64509 8.79757 2.83259 8.79757C3.12054 8.79757 3.40513 8.76074 3.68638 8.68708C2.93638 8.53306 2.31362 8.16141 1.81808 7.57213C1.32924 6.97614 1.08482 6.28641 1.08482 5.50293V5.46275C1.54018 5.71722 2.02902 5.85449 2.55134 5.87458C2.10938 5.57994 1.75781 5.19489 1.49665 4.71945C1.23549 4.244 1.10491 3.72838 1.10491 3.17257C1.10491 2.58329 1.25223 2.03753 1.54688 1.5353C2.35714 2.53306 3.34152 3.33329 4.5 3.93596C5.66518 4.53195 6.91071 4.86342 8.23661 4.93038C8.18304 4.67592 8.15625 4.42815 8.15625 4.18708C8.15625 3.28976 8.47098 2.52637 9.10045 1.8969C9.73661 1.26074 10.5033 0.942662 11.4007 0.942662C12.3382 0.942662 13.1283 1.28418 13.7712 1.96721C14.5011 1.82659 15.1875 1.56543 15.8304 1.18373C15.5826 1.95382 15.1071 2.5498 14.404 2.97168C15.0268 2.90472 15.6496 2.7373 16.2723 2.46945Z" fill="white"/>
</svg>
