<svg width="20" height="20" viewBox="0 0 20 20" fill="none" xmlns="http://www.w3.org/2000/svg">
<path d="M12.3791 15C12.0576 15 11.7154 14.9544 11.3554 14.8616C8.55399 14.1391 5 10.6829 5 7.82743C5 6.50812 5.6385 5.78326 5.87998 5.51044C6.18145 5.16481 6.62144 5 6.90069 5C7.92882 5 8.15548 5.24322 8.45473 6.14009C8.55769 6.44892 8.69769 6.87215 8.97916 7.477C9.12805 7.79782 9.13619 8.11385 9.00212 8.41627C8.78731 8.85551 8.57028 9.11233 8.42732 9.28274L8.42362 9.28754C8.60954 9.60837 8.96583 10.1628 9.44211 10.6204C10.0725 11.2269 10.6132 11.4789 10.9036 11.6149L10.9843 11.6525C11.0124 11.6141 11.0421 11.5709 11.0695 11.5317C11.191 11.3581 11.3487 11.1341 11.5776 10.8613C11.9754 10.3868 12.3717 10.4636 12.6731 10.582C12.7657 10.6196 14.6694 11.4133 14.8812 11.8261C15.0501 12.1558 15.0635 12.8566 14.759 13.5079C14.3035 14.4832 13.4605 15 12.3791 15ZM6.90069 6.2001C6.83617 6.21902 6.77559 6.25106 6.72218 6.2945C6.48367 6.56573 6.11108 6.98736 6.11108 7.82743C6.11108 9.90599 9.04212 13.031 11.6139 13.6943C12.6857 13.9703 13.4124 13.7263 13.7687 12.9662C13.8553 12.7798 13.8827 12.6054 13.8879 12.4862C13.3811 12.2203 12.8676 11.9695 12.348 11.7341C12.168 11.9542 12.0502 12.123 11.9561 12.2574C11.6939 12.6302 11.3332 13.1407 10.5999 12.783L10.4636 12.7166C9.81793 12.4273 9.22255 12.0215 8.70287 11.5165C8.04659 10.8853 7.59327 10.1356 7.38142 9.74598C7.05106 9.13393 7.41179 8.7059 7.60586 8.47548C7.71623 8.34427 7.83993 8.19706 7.96363 7.96744C7.66512 7.31538 7.51179 6.85455 7.40883 6.54652C7.36809 6.42411 7.32365 6.2889 7.29254 6.2177C7.16243 6.20238 7.03152 6.1965 6.90069 6.2001Z" fill="black"/>
<path d="M1.56189 19C1.48742 19 1.4137 18.9852 1.34499 18.9565C1.27627 18.9278 1.21392 18.8857 1.16153 18.8328C1.02058 18.6896 0.966603 18.4826 1.02058 18.2884L2.15118 14.1802C1.44257 12.875 1.07145 11.4133 1.07157 9.92802C1.07232 6.29893 3.16107 3.16021 6.51988 1.73632C9.92593 0.293677 13.7016 1.00225 16.3759 3.58685C16.4216 3.63109 16.4584 3.68133 16.4861 3.73682C18.9865 6.31467 19.683 9.97301 18.299 13.3232C16.8895 16.7356 13.7218 18.8553 10.0324 18.8553C9.89219 18.8418 9.79847 18.838 9.68151 18.8313C8.99626 18.7938 7.598 18.7166 5.94634 17.8753L1.70434 18.982C1.65779 18.9939 1.60994 18.9999 1.56189 19ZM6.01456 16.7138C6.10678 16.7138 6.199 16.7363 6.28147 16.7813C7.79743 17.6009 9.06373 17.6706 9.74299 17.7081C9.89219 17.7163 10.0129 17.7238 10.1021 17.7351C13.257 17.7306 16.0258 15.877 17.2583 12.8935C18.4864 9.92127 17.8416 6.67308 15.5767 4.4169C15.5392 4.37852 15.507 4.33542 15.4807 4.28868C13.1445 2.11047 9.89369 1.52787 6.95923 2.77181C4.02177 4.01725 2.19692 6.75856 2.19542 9.92727C2.19542 11.2957 2.55679 12.6438 3.2413 13.824C3.27872 13.8886 3.30284 13.96 3.31224 14.0341C3.32164 14.1081 3.31613 14.1833 3.29603 14.2552L2.36261 17.6473L5.87286 16.7326C5.91905 16.72 5.96671 16.7137 6.01456 16.7138Z" fill="black" stroke="black" stroke-width="0.4"/>
</svg>
